<svg xmlns="http://www.w3.org/2000/svg" xmlns:xlink="http://www.w3.org/1999/xlink" width="295" zoomAndPan="magnify" viewBox="0 0 224.87999 74.999997" height="100" preserveAspectRatio="xMidYMid meet" version="1.0"><defs><clipPath id="3d9b181cef"><path d="M 11.335938 0.0195312 L 224.761719 0.0195312 L 224.761719 20.789062 L 11.335938 20.789062 Z M 11.335938 0.0195312 " clip-rule="nonzero"/></clipPath><clipPath id="3af232fd88"><path d="M 6.859375 53.3125 L 224.761719 53.3125 L 224.761719 74.382812 L 6.859375 74.382812 Z M 6.859375 53.3125 " clip-rule="nonzero"/></clipPath><clipPath id="84b688dfb7"><path d="M 21.394531 46.742188 L 33.503906 46.742188 L 33.503906 67.8125 L 21.394531 67.8125 Z M 21.394531 46.742188 " clip-rule="nonzero"/></clipPath><clipPath id="b23ff0f8c9"><path d="M 0 35 L 19 35 L 19 56 L 0 56 Z M 0 35 " clip-rule="nonzero"/></clipPath><clipPath id="b10fbf0be9"><path d="M -6.128906 49.453125 L 0.882812 29.550781 L 18.273438 35.675781 L 11.261719 55.578125 Z M -6.128906 49.453125 " clip-rule="nonzero"/></clipPath><clipPath id="ed7542ed78"><path d="M -2.625 39.515625 L 18.261719 35.703125 L 11.261719 55.578125 Z M -2.625 39.515625 " clip-rule="nonzero"/></clipPath><clipPath id="98576fb281"><path d="M 0 12 L 27 12 L 27 48 L 0 48 Z M 0 12 " clip-rule="nonzero"/></clipPath><clipPath id="6f9da27e9d"><path d="M -16.636719 36.699219 L -4.273438 1.605469 L 26.386719 12.410156 L 14.023438 47.5 Z M -16.636719 36.699219 " clip-rule="nonzero"/></clipPath><clipPath id="e1dfe36aa5"><path d="M -10.464844 19.179688 L 26.367188 12.460938 L 14.023438 47.5 Z M -10.464844 19.179688 " clip-rule="nonzero"/></clipPath><clipPath id="3cb1231f48"><path d="M 23.457031 27.15625 L 31.664062 27.15625 L 31.664062 41 L 23.457031 41 Z M 23.457031 27.15625 " clip-rule="nonzero"/></clipPath><clipPath id="1f74eb5783"><path d="M 27.558594 27.15625 L 31.664062 40.984375 L 23.457031 40.984375 Z M 27.558594 27.15625 " clip-rule="nonzero"/></clipPath><clipPath id="2b9cc04b68"><path d="M 29.402344 46.398438 L 37.609375 46.398438 L 37.609375 60.25 L 29.402344 60.25 Z M 29.402344 46.398438 " clip-rule="nonzero"/></clipPath><clipPath id="34bb482b1f"><path d="M 33.503906 46.398438 L 37.609375 60.226562 L 29.402344 60.226562 Z M 33.503906 46.398438 " clip-rule="nonzero"/></clipPath><clipPath id="c4878dbc3d"><path d="M 17.289062 46.742188 L 25.496094 46.742188 L 25.496094 60.59375 L 17.289062 60.59375 Z M 17.289062 46.742188 " clip-rule="nonzero"/></clipPath><clipPath id="8fd96ae7cf"><path d="M 21.394531 46.742188 L 25.496094 60.570312 L 17.289062 60.570312 Z M 21.394531 46.742188 " clip-rule="nonzero"/></clipPath><clipPath id="bf44bf753a"><path d="M 132.765625 38.175781 L 139.429688 38.175781 L 139.429688 53.660156 L 132.765625 53.660156 Z M 132.765625 38.175781 " clip-rule="nonzero"/></clipPath><clipPath id="12d1eec51f"><path d="M 136.097656 38.175781 L 139.429688 53.65625 L 132.765625 53.65625 Z M 136.097656 38.175781 " clip-rule="nonzero"/></clipPath><clipPath id="8353e53df1"><path d="M 132 41 L 139 41 L 139 55 L 132 55 Z M 132 41 " clip-rule="nonzero"/></clipPath><clipPath id="a5b1bf0d1f"><path d="M 135.773438 55.578125 L 130.175781 54.402344 L 132.90625 41.394531 L 138.503906 42.570312 Z M 135.773438 55.578125 " clip-rule="nonzero"/></clipPath><clipPath id="11344e2f5e"><path d="M 132.972656 54.992188 L 132.90625 41.402344 L 138.5 42.574219 Z M 132.972656 54.992188 " clip-rule="nonzero"/></clipPath><clipPath id="7e9d93efe5"><path d="M 135 38 L 145 38 L 145 54 L 135 54 Z M 135 38 " clip-rule="nonzero"/></clipPath><clipPath id="e0c2a66313"><path d="M 132.90625 39.441406 L 139.078125 36.925781 L 144.917969 51.269531 L 138.746094 53.78125 Z M 132.90625 39.441406 " clip-rule="nonzero"/></clipPath><clipPath id="f84f35318f"><path d="M 135.992188 38.183594 L 144.914062 51.265625 L 138.742188 53.777344 Z M 135.992188 38.183594 " clip-rule="nonzero"/></clipPath><clipPath id="dcf88a358f"><path d="M 139 43 L 149 43 L 149 60 L 139 60 Z M 139 43 " clip-rule="nonzero"/></clipPath><clipPath id="ee7ec4bab4"><path d="M 136.800781 45.234375 L 142.972656 42.722656 L 148.808594 57.0625 L 142.640625 59.578125 Z M 136.800781 45.234375 " clip-rule="nonzero"/></clipPath><clipPath id="eb18eee5c8"><path d="M 139.886719 43.976562 L 148.808594 57.058594 L 142.636719 59.570312 Z M 139.886719 43.976562 " clip-rule="nonzero"/></clipPath><clipPath id="fafd8ad5df"><path d="M 132 38 L 144 38 L 144 50 L 132 50 Z M 132 38 " clip-rule="nonzero"/></clipPath><clipPath id="0895fcabad"><path d="M 145.378906 47.898438 L 141.792969 51.230469 L 132.75 41.488281 L 136.339844 38.15625 Z M 145.378906 47.898438 " clip-rule="nonzero"/></clipPath><clipPath id="38aa224582"><path d="M 143.585938 49.5625 L 132.753906 41.492188 L 136.34375 38.160156 Z M 143.585938 49.5625 " clip-rule="nonzero"/></clipPath><clipPath id="140ab47585"><path d="M 136 49 L 148 49 L 148 61 L 136 61 Z M 136 49 " clip-rule="nonzero"/></clipPath><clipPath id="a3ebf598b6"><path d="M 149.070312 58.945312 L 145.828125 61.957031 L 136.78125 52.210938 L 140.023438 49.199219 Z M 149.070312 58.945312 " clip-rule="nonzero"/></clipPath><clipPath id="5ba61205a4"><path d="M 147.449219 60.453125 L 136.789062 52.21875 L 140.03125 49.207031 Z M 147.449219 60.453125 " clip-rule="nonzero"/></clipPath><clipPath id="7d7ea95e16"><path d="M 83.914062 25.691406 L 93.746094 25.691406 L 93.746094 35.335938 L 83.914062 35.335938 Z M 83.914062 25.691406 " clip-rule="nonzero"/></clipPath><clipPath id="0409a7799e"><path d="M 88.828125 25.691406 C 86.113281 25.691406 83.914062 27.851562 83.914062 30.515625 C 83.914062 33.175781 86.113281 35.335938 88.828125 35.335938 C 91.542969 35.335938 93.742188 33.175781 93.742188 30.515625 C 93.742188 27.851562 91.542969 25.691406 88.828125 25.691406 Z M 88.828125 25.691406 " clip-rule="nonzero"/></clipPath><clipPath id="a1b8345241"><path d="M 80.390625 25.691406 L 88.828125 25.691406 L 88.828125 35.335938 L 80.390625 35.335938 Z M 80.390625 25.691406 " clip-rule="nonzero"/></clipPath><clipPath id="56ac29cdf0"><path d="M 80.808594 40.5625 L 87.5625 40.5625 L 87.5625 54.417969 L 80.808594 54.417969 Z M 80.808594 40.5625 " clip-rule="nonzero"/></clipPath><clipPath id="325b587a66"><path d="M 82.230469 40.441406 L 92.058594 40.441406 L 92.058594 50.085938 L 82.230469 50.085938 Z M 82.230469 40.441406 " clip-rule="nonzero"/></clipPath><clipPath id="b6ee78a486"><path d="M 87.140625 40.441406 C 84.429688 40.441406 82.230469 42.601562 82.230469 45.261719 C 82.230469 47.925781 84.429688 50.085938 87.140625 50.085938 C 89.855469 50.085938 92.054688 47.925781 92.054688 45.261719 C 92.054688 42.601562 89.855469 40.441406 87.140625 40.441406 Z M 87.140625 40.441406 " clip-rule="nonzero"/></clipPath><clipPath id="5d5ecfa4c0"><path d="M 85 43 L 94 43 L 94 59 L 85 59 Z M 85 43 " clip-rule="nonzero"/></clipPath><clipPath id="efb2d69212"><path d="M 85.125 44.695312 L 91.835938 43.949219 L 93.375 57.71875 L 86.660156 58.46875 Z M 85.125 44.695312 " clip-rule="nonzero"/></clipPath><clipPath id="3ba4b4d3a0"><path d="M 99.921875 18.765625 L 105.410156 18.765625 L 105.410156 55.582031 L 99.921875 55.582031 Z M 99.921875 18.765625 " clip-rule="nonzero"/></clipPath><clipPath id="a0aec622ba"><path d="M 119.652344 16.894531 L 126.148438 16.894531 L 126.148438 56.585938 L 119.652344 56.585938 Z M 119.652344 16.894531 " clip-rule="nonzero"/></clipPath><clipPath id="659366a666"><path d="M 155.085938 19.765625 L 158.597656 19.765625 L 158.597656 56.585938 L 155.085938 56.585938 Z M 155.085938 19.765625 " clip-rule="nonzero"/></clipPath><clipPath id="8d56b3aa96"><path d="M 164.917969 19.34375 L 169.554688 19.34375 L 169.554688 56.164062 L 164.917969 56.164062 Z M 164.917969 19.34375 " clip-rule="nonzero"/></clipPath><clipPath id="2e42ab0a0c"><path d="M 209.164062 26.648438 L 224.761719 26.648438 L 224.761719 33.550781 L 209.164062 33.550781 Z M 209.164062 26.648438 " clip-rule="nonzero"/></clipPath><clipPath id="3a68ac3b55"><path d="M 198.347656 18.796875 L 202.703125 18.796875 L 202.703125 55.613281 L 198.347656 55.613281 Z M 198.347656 18.796875 " clip-rule="nonzero"/></clipPath><clipPath id="9197cb9833"><path d="M 209.25 39.089844 L 224.761719 39.089844 L 224.761719 47.773438 L 209.25 47.773438 Z M 209.25 39.089844 " clip-rule="nonzero"/></clipPath><clipPath id="e112057239"><path d="M 164 18 L 187 18 L 187 74 L 164 74 Z M 164 18 " clip-rule="nonzero"/></clipPath><clipPath id="37c515bb88"><path d="M 157.917969 19.683594 L 179.953125 16.894531 L 186.832031 71.292969 L 164.796875 74.078125 Z M 157.917969 19.683594 " clip-rule="nonzero"/></clipPath><clipPath id="86bdc8451e"><path d="M 168.933594 18.289062 L 186.824219 71.226562 L 164.789062 74.015625 Z M 168.933594 18.289062 " clip-rule="nonzero"/></clipPath><clipPath id="6dcfffbb1c"><path d="M 180 20 L 203 20 L 203 74.980469 L 180 74.980469 Z M 180 20 " clip-rule="nonzero"/></clipPath><clipPath id="33a07cc03f"><path d="M 187.21875 19.28125 L 209.25 22.089844 L 202.324219 76.480469 L 180.292969 73.675781 Z M 187.21875 19.28125 " clip-rule="nonzero"/></clipPath><clipPath id="586e5e73e8"><path d="M 198.234375 20.683594 L 202.332031 76.414062 L 180.300781 73.609375 Z M 198.234375 20.683594 " clip-rule="nonzero"/></clipPath><clipPath id="09f1993859"><path d="M 176.257812 19.726562 L 191.597656 19.726562 L 191.597656 46.332031 L 176.257812 46.332031 Z M 176.257812 19.726562 " clip-rule="nonzero"/></clipPath><clipPath id="03b6bc0220"><path d="M 183.929688 46.332031 L 176.257812 19.765625 L 191.597656 19.765625 Z M 183.929688 46.332031 " clip-rule="nonzero"/></clipPath><clipPath id="05f8f3bf05"><path d="M 140.734375 17.570312 L 155.976562 17.570312 L 155.976562 50.078125 L 140.734375 50.078125 Z M 140.734375 17.570312 " clip-rule="nonzero"/></clipPath><clipPath id="c138fbd347"><path d="M 140.734375 33.847656 L 155.976562 17.617188 L 155.976562 50.078125 Z M 140.734375 33.847656 " clip-rule="nonzero"/></clipPath><clipPath id="e494850e77"><path d="M 140 33 L 159 33 L 159 55 L 140 55 Z M 140 33 " clip-rule="nonzero"/></clipPath><clipPath id="b869778fd4"><path d="M 150.898438 26.679688 L 165.867188 47.878906 L 155.925781 54.898438 L 140.957031 33.699219 Z M 150.898438 26.679688 " clip-rule="nonzero"/></clipPath><clipPath id="98494929ee"><path d="M 158.371094 37.265625 L 155.90625 54.867188 L 140.957031 33.699219 Z M 158.371094 37.265625 " clip-rule="nonzero"/></clipPath><clipPath id="bb091c503b"><path d="M 53.804688 26.367188 L 72.484375 26.367188 L 72.484375 33.832031 L 53.804688 33.832031 Z M 53.804688 26.367188 " clip-rule="nonzero"/></clipPath><clipPath id="84be8569f2"><path d="M 53.804688 39.8125 L 71.5 39.8125 L 71.5 54.417969 L 53.804688 54.417969 Z M 53.804688 39.8125 " clip-rule="nonzero"/></clipPath><clipPath id="1c65221f41"><path d="M 68.261719 18.765625 L 74.066406 18.765625 L 74.066406 58.46875 L 68.261719 58.46875 Z M 68.261719 18.765625 " clip-rule="nonzero"/></clipPath><clipPath id="ecd695c3d4"><path d="M 30 16 L 48 16 L 48 47 L 30 47 Z M 30 16 " clip-rule="nonzero"/></clipPath><clipPath id="00156050be"><path d="M 49.511719 46.152344 L 31.859375 47.109375 L 30.246094 17.320312 L 47.898438 16.363281 Z M 49.511719 46.152344 " clip-rule="nonzero"/></clipPath><clipPath id="c838c9108e"><path d="M 40.683594 46.632812 L 30.25 17.371094 L 47.902344 16.417969 Z M 40.683594 46.632812 " clip-rule="nonzero"/></clipPath><clipPath id="fcfdad9004"><path d="M 33 17 L 48 17 L 48 43 L 33 43 Z M 33 17 " clip-rule="nonzero"/></clipPath><clipPath id="2cb13c610e"><path d="M 54.066406 40.890625 L 40.4375 44.929688 L 33.625 21.925781 L 47.253906 17.890625 Z M 54.066406 40.890625 " clip-rule="nonzero"/></clipPath><clipPath id="78414e9bd2"><path d="M 47.253906 42.910156 L 33.636719 21.96875 L 47.265625 17.929688 Z M 47.253906 42.910156 " clip-rule="nonzero"/></clipPath><clipPath id="7ac174dd2c"><path d="M 40 37 L 47 37 L 47 47 L 40 47 Z M 40 37 " clip-rule="nonzero"/></clipPath><clipPath id="5d66cacdcf"><path d="M 37.796875 38.335938 L 44.171875 36.203125 L 46.789062 44.019531 L 40.414062 46.152344 Z M 37.796875 38.335938 " clip-rule="nonzero"/></clipPath><clipPath id="d62021c666"><path d="M 40.984375 37.269531 L 46.78125 44 L 40.40625 46.132812 Z M 40.984375 37.269531 " clip-rule="nonzero"/></clipPath><clipPath id="36facc72bb"><path d="M 40 33 L 47 33 L 47 43 L 40 43 Z M 40 33 " clip-rule="nonzero"/></clipPath><clipPath id="43d95c12e3"><path d="M 37.796875 35.023438 L 44.265625 32.859375 L 46.921875 40.792969 L 40.453125 42.957031 Z M 37.796875 35.023438 " clip-rule="nonzero"/></clipPath><clipPath id="d5e3fe9a4d"><path d="M 41.03125 33.941406 L 46.914062 40.773438 L 40.445312 42.9375 Z M 41.03125 33.941406 " clip-rule="nonzero"/></clipPath><clipPath id="a56855cac5"><path d="M 41 39 L 48 39 L 48 48 L 41 48 Z M 41 39 " clip-rule="nonzero"/></clipPath><clipPath id="00678bd96c"><path d="M 44.140625 37.734375 L 50.367188 40.269531 L 47.257812 47.902344 L 41.035156 45.371094 Z M 44.140625 37.734375 " clip-rule="nonzero"/></clipPath><clipPath id="0b4facd998"><path d="M 47.253906 39.003906 L 47.265625 47.882812 L 41.042969 45.351562 Z M 47.253906 39.003906 " clip-rule="nonzero"/></clipPath><clipPath id="3df1b3490c"><path d="M 43 47 L 48 47 L 48 54 L 43 54 Z M 43 47 " clip-rule="nonzero"/></clipPath><clipPath id="772e1ce44a"><path d="M 45.042969 46.617188 L 49.449219 48.226562 L 47.476562 53.628906 L 43.070312 52.019531 Z M 45.042969 46.617188 " clip-rule="nonzero"/></clipPath><clipPath id="f82dd0e8b0"><path d="M 47.246094 47.421875 L 47.480469 53.613281 L 43.074219 52.003906 Z M 47.246094 47.421875 " clip-rule="nonzero"/></clipPath><clipPath id="6dc912606f"><path d="M 41 49 L 48 49 L 48 56 L 41 56 Z M 41 49 " clip-rule="nonzero"/></clipPath><clipPath id="e15a153c28"><path d="M 39.890625 50.632812 L 43.105469 48.109375 L 47.320312 53.472656 L 44.101562 56 Z M 39.890625 50.632812 " clip-rule="nonzero"/></clipPath><clipPath id="eb34c962fa"><path d="M 41.496094 49.371094 L 47.316406 53.46875 L 44.097656 55.996094 Z M 41.496094 49.371094 " clip-rule="nonzero"/></clipPath><clipPath id="0afd9b0bcf"><path d="M 40 44 L 46 44 L 46 52 L 40 52 Z M 40 44 " clip-rule="nonzero"/></clipPath><clipPath id="8b604e1a65"><path d="M 38.382812 45.773438 L 41.753906 43.457031 L 45.613281 49.082031 L 42.242188 51.398438 Z M 38.382812 45.773438 " clip-rule="nonzero"/></clipPath><clipPath id="f06225ff90"><path d="M 40.066406 44.617188 L 45.609375 49.078125 L 42.238281 51.394531 Z M 40.066406 44.617188 " clip-rule="nonzero"/></clipPath><clipPath id="311b7e0e28"><path d="M 41 44 L 47 44 L 47 52 L 41 52 Z M 41 44 " clip-rule="nonzero"/></clipPath><clipPath id="68a61ba65b"><path d="M 39.6875 45.773438 L 43.058594 43.457031 L 46.917969 49.082031 L 43.546875 51.398438 Z M 39.6875 45.773438 " clip-rule="nonzero"/></clipPath><clipPath id="e208fc47ea"><path d="M 41.375 44.617188 L 46.917969 49.078125 L 43.542969 51.394531 Z M 41.375 44.617188 " clip-rule="nonzero"/></clipPath><clipPath id="ccc74abf26"><path d="M 41 43 L 47 43 L 47 50 L 41 50 Z M 41 43 " clip-rule="nonzero"/></clipPath><clipPath id="5fa483c0fa"><path d="M 40.085938 44.257812 L 42.980469 42.273438 L 46.839844 47.894531 L 43.941406 49.878906 Z M 40.085938 44.257812 " clip-rule="nonzero"/></clipPath><clipPath id="ac44189ebb"><path d="M 41.53125 43.265625 L 46.835938 47.894531 L 43.941406 49.878906 Z M 41.53125 43.265625 " clip-rule="nonzero"/></clipPath><clipPath id="afc53a87e4"><path d="M 40 40 L 45 40 L 45 48 L 40 48 Z M 40 40 " clip-rule="nonzero"/></clipPath><clipPath id="6fd98be9e8"><path d="M 38.625 41.691406 L 41.8125 40.21875 L 44.675781 46.40625 L 41.488281 47.878906 Z M 38.625 41.691406 " clip-rule="nonzero"/></clipPath><clipPath id="d52e0f9038"><path d="M 40.21875 40.953125 L 44.675781 46.40625 L 41.488281 47.878906 Z M 40.21875 40.953125 " clip-rule="nonzero"/></clipPath><clipPath id="38f6e3b107"><path d="M 43.597656 43.6875 L 47.136719 43.6875 L 47.136719 51.148438 L 43.597656 51.148438 Z M 43.597656 43.6875 " clip-rule="nonzero"/></clipPath><clipPath id="45cb449ec7"><path d="M 97 35 L 105 35 L 105 54 L 97 54 Z M 97 35 " clip-rule="nonzero"/></clipPath><clipPath id="7fa9943a51"><path d="M 97.496094 36.410156 L 102.019531 35.777344 L 104.429688 52.980469 L 99.90625 53.613281 Z M 97.496094 36.410156 " clip-rule="nonzero"/></clipPath><clipPath id="e4544133ea"><path d="M 93.375 34.289062 L 105.425781 34.289062 L 105.425781 41.160156 L 93.375 41.160156 Z M 93.375 34.289062 " clip-rule="nonzero"/></clipPath><clipPath id="b3ca220aa3"><path d="M 93.375 37.722656 L 105.410156 34.289062 L 105.410156 41.160156 Z M 93.375 37.722656 " clip-rule="nonzero"/></clipPath><clipPath id="c032af6474"><path d="M 95 32 L 102 32 L 102 40 L 95 40 Z M 95 32 " clip-rule="nonzero"/></clipPath><clipPath id="67e9813a7e"><path d="M 96.753906 40.863281 L 94.714844 34.285156 L 99.898438 32.675781 L 101.9375 39.253906 Z M 96.753906 40.863281 " clip-rule="nonzero"/></clipPath><clipPath id="995b308066"><path d="M 95.738281 37.582031 L 99.902344 32.691406 L 101.9375 39.253906 Z M 95.738281 37.582031 " clip-rule="nonzero"/></clipPath><clipPath id="d0fa722abc"><path d="M 94 34 L 100 34 L 100 41 L 94 41 Z M 94 34 " clip-rule="nonzero"/></clipPath><clipPath id="3a5ba2232f"><path d="M 94.5 41.242188 L 94.097656 34.367188 L 99.515625 34.046875 L 99.917969 40.925781 Z M 94.5 41.242188 " clip-rule="nonzero"/></clipPath><clipPath id="98f11a2ee3"><path d="M 94.300781 37.8125 L 99.515625 34.0625 L 99.917969 40.925781 Z M 94.300781 37.8125 " clip-rule="nonzero"/></clipPath><clipPath id="1d66d2d43c"><path d="M 98 27 L 105 27 L 105 38 L 98 38 Z M 98 27 " clip-rule="nonzero"/></clipPath><clipPath id="79b90176a0"><path d="M 100.835938 27.601562 L 104.511719 28.589844 L 102.003906 37.898438 L 98.332031 36.910156 Z M 100.835938 27.601562 " clip-rule="nonzero"/></clipPath><clipPath id="fcaadabd2a"><path d="M 96 36 L 105 36 L 105 47 L 96 47 Z M 96 36 " clip-rule="nonzero"/></clipPath><clipPath id="70f0d6e4e8"><path d="M 96.4375 38.230469 L 99.746094 36.351562 L 104.511719 44.734375 L 101.203125 46.613281 Z M 96.4375 38.230469 " clip-rule="nonzero"/></clipPath><clipPath id="75b8ad3581"><path d="M 95 17 L 104 17 L 104 29 L 95 29 Z M 95 17 " clip-rule="nonzero"/></clipPath><clipPath id="f53b1ebafd"><path d="M 95.847656 19.8125 L 99.15625 17.933594 L 103.921875 26.316406 L 100.613281 28.195312 Z M 95.847656 19.8125 " clip-rule="nonzero"/></clipPath><clipPath id="4669d5692a"><path d="M 98 20 L 105 20 L 105 32 L 98 32 Z M 98 20 " clip-rule="nonzero"/></clipPath><clipPath id="4420cebc6e"><path d="M 98.632812 21.523438 L 102.375 20.835938 L 104.117188 30.320312 L 100.378906 31.007812 Z M 98.632812 21.523438 " clip-rule="nonzero"/></clipPath><clipPath id="11e0e7e61a"><path d="M 91 15 L 102 15 L 102 25 L 91 25 Z M 91 15 " clip-rule="nonzero"/></clipPath><clipPath id="d6b454ea80"><path d="M 91.457031 18.332031 L 93.777344 15.316406 L 101.421875 21.195312 L 99.101562 24.210938 Z M 91.457031 18.332031 " clip-rule="nonzero"/></clipPath><clipPath id="ea38598ed9"><path d="M 88 15 L 100 15 L 100 23 L 88 23 Z M 88 15 " clip-rule="nonzero"/></clipPath><clipPath id="e9b8ded139"><path d="M 88.921875 18.539062 L 90.464844 15.0625 L 99.277344 18.976562 L 97.734375 22.453125 Z M 88.921875 18.539062 " clip-rule="nonzero"/></clipPath><clipPath id="574c200a12"><path d="M 132 14 L 147 14 L 147 34 L 132 34 Z M 132 14 " clip-rule="nonzero"/></clipPath><clipPath id="daa12464f1"><path d="M 139.804688 36.351562 L 125.585938 30.015625 L 132.710938 14.015625 L 146.933594 20.351562 Z M 139.804688 36.351562 " clip-rule="nonzero"/></clipPath><clipPath id="a93a8f5016"><path d="M 132.695312 33.183594 L 132.691406 14.0625 L 146.914062 20.398438 Z M 132.695312 33.183594 " clip-rule="nonzero"/></clipPath><clipPath id="80c0221dc5"><path d="M 0 63.734375 L 224.761719 63.734375 L 224.761719 74.980469 L 0 74.980469 Z M 0 63.734375 " clip-rule="nonzero"/></clipPath><clipPath id="d4a58c6c6b"><path d="M 0 0.0195312 L 12.042969 0.0195312 L 12.042969 74.980469 L 0 74.980469 Z M 0 0.0195312 " clip-rule="nonzero"/></clipPath><clipPath id="da467c0400"><path d="M 223.492188 0.0195312 L 224.761719 0.0195312 L 224.761719 74.980469 L 223.492188 74.980469 Z M 223.492188 0.0195312 " clip-rule="nonzero"/></clipPath></defs><g clip-path="url(#3d9b181cef)"><path fill="#333333" d="M 11.335938 -0.28125 L 239.8125 -0.28125 L 239.8125 20.789062 L 11.335938 20.789062 Z M 11.335938 -0.28125 " fill-opacity="1" fill-rule="nonzero"/></g><g clip-path="url(#3af232fd88)"><path fill="#333333" d="M 6.859375 53.3125 L 235.339844 53.3125 L 235.339844 74.382812 L 6.859375 74.382812 Z M 6.859375 53.3125 " fill-opacity="1" fill-rule="nonzero"/></g><g clip-path="url(#84b688dfb7)"><path fill="#333333" d="M 21.394531 46.742188 L 33.503906 46.742188 L 33.503906 67.796875 L 21.394531 67.796875 Z M 21.394531 46.742188 " fill-opacity="1" fill-rule="nonzero"/></g><g clip-path="url(#b23ff0f8c9)"><g clip-path="url(#b10fbf0be9)"><g clip-path="url(#ed7542ed78)"><path fill="#333333" d="M -6.128906 49.453125 L 0.882812 29.550781 L 18.273438 35.675781 L 11.261719 55.578125 Z M -6.128906 49.453125 " fill-opacity="1" fill-rule="nonzero"/></g></g></g><g clip-path="url(#98576fb281)"><g clip-path="url(#6f9da27e9d)"><g clip-path="url(#e1dfe36aa5)"><path fill="#333333" d="M -16.636719 36.699219 L -4.273438 1.605469 L 26.386719 12.410156 L 14.023438 47.5 Z M -16.636719 36.699219 " fill-opacity="1" fill-rule="nonzero"/></g></g></g><g clip-path="url(#3cb1231f48)"><g clip-path="url(#1f74eb5783)"><path fill="#333333" d="M 23.457031 27.15625 L 31.664062 27.15625 L 31.664062 40.976562 L 23.457031 40.976562 Z M 23.457031 27.15625 " fill-opacity="1" fill-rule="nonzero"/></g></g><g clip-path="url(#2b9cc04b68)"><g clip-path="url(#34bb482b1f)"><path fill="#333333" d="M 29.402344 46.398438 L 37.609375 46.398438 L 37.609375 60.21875 L 29.402344 60.21875 Z M 29.402344 46.398438 " fill-opacity="1" fill-rule="nonzero"/></g></g><g clip-path="url(#c4878dbc3d)"><g clip-path="url(#8fd96ae7cf)"><path fill="#333333" d="M 17.289062 46.742188 L 25.496094 46.742188 L 25.496094 60.5625 L 17.289062 60.5625 Z M 17.289062 46.742188 " fill-opacity="1" fill-rule="nonzero"/></g></g><g clip-path="url(#bf44bf753a)"><g clip-path="url(#12d1eec51f)"><path fill="#333333" d="M 132.765625 38.175781 L 139.429688 38.175781 L 139.429688 53.660156 L 132.765625 53.660156 Z M 132.765625 38.175781 " fill-opacity="1" fill-rule="nonzero"/></g></g><g clip-path="url(#8353e53df1)"><g clip-path="url(#a5b1bf0d1f)"><g clip-path="url(#11344e2f5e)"><path fill="#333333" d="M 135.773438 55.578125 L 130.175781 54.402344 L 132.90625 41.394531 L 138.503906 42.570312 Z M 135.773438 55.578125 " fill-opacity="1" fill-rule="nonzero"/></g></g></g><g clip-path="url(#7e9d93efe5)"><g clip-path="url(#e0c2a66313)"><g clip-path="url(#f84f35318f)"><path fill="#333333" d="M 132.90625 39.441406 L 139.078125 36.925781 L 144.917969 51.269531 L 138.746094 53.78125 Z M 132.90625 39.441406 " fill-opacity="1" fill-rule="nonzero"/></g></g></g><g clip-path="url(#dcf88a358f)"><g clip-path="url(#ee7ec4bab4)"><g clip-path="url(#eb18eee5c8)"><path fill="#333333" d="M 136.800781 45.234375 L 142.972656 42.722656 L 148.808594 57.0625 L 142.640625 59.578125 Z M 136.800781 45.234375 " fill-opacity="1" fill-rule="nonzero"/></g></g></g><g clip-path="url(#fafd8ad5df)"><g clip-path="url(#0895fcabad)"><g clip-path="url(#38aa224582)"><path fill="#333333" d="M 145.378906 47.898438 L 141.792969 51.230469 L 132.75 41.488281 L 136.339844 38.15625 Z M 145.378906 47.898438 " fill-opacity="1" fill-rule="nonzero"/></g></g></g><g clip-path="url(#140ab47585)"><g clip-path="url(#a3ebf598b6)"><g clip-path="url(#5ba61205a4)"><path fill="#333333" d="M 149.070312 58.945312 L 145.828125 61.957031 L 136.792969 52.226562 L 140.035156 49.214844 Z M 149.070312 58.945312 " fill-opacity="1" fill-rule="nonzero"/></g></g></g><g clip-path="url(#7d7ea95e16)"><g clip-path="url(#0409a7799e)"><path fill="#333333" d="M 83.914062 25.691406 L 93.746094 25.691406 L 93.746094 35.335938 L 83.914062 35.335938 Z M 83.914062 25.691406 " fill-opacity="1" fill-rule="nonzero"/></g></g><g clip-path="url(#a1b8345241)"><path fill="#333333" d="M 80.390625 25.691406 L 88.828125 25.691406 L 88.828125 35.351562 L 80.390625 35.351562 Z M 80.390625 25.691406 " fill-opacity="1" fill-rule="nonzero"/></g><g clip-path="url(#56ac29cdf0)"><path fill="#333333" d="M 80.808594 40.5625 L 87.5625 40.5625 L 87.5625 54.414062 L 80.808594 54.414062 Z M 80.808594 40.5625 " fill-opacity="1" fill-rule="nonzero"/></g><g clip-path="url(#325b587a66)"><g clip-path="url(#b6ee78a486)"><path fill="#333333" d="M 82.230469 40.441406 L 92.058594 40.441406 L 92.058594 50.085938 L 82.230469 50.085938 Z M 82.230469 40.441406 " fill-opacity="1" fill-rule="nonzero"/></g></g><g clip-path="url(#5d5ecfa4c0)"><g clip-path="url(#efb2d69212)"><path fill="#333333" d="M 85.125 44.695312 L 91.835938 43.949219 L 93.375 57.710938 L 86.660156 58.460938 Z M 85.125 44.695312 " fill-opacity="1" fill-rule="nonzero"/></g></g><g clip-path="url(#3ba4b4d3a0)"><path fill="#333333" d="M 99.921875 18.765625 L 105.410156 18.765625 L 105.410156 55.582031 L 99.921875 55.582031 Z M 99.921875 18.765625 " fill-opacity="1" fill-rule="nonzero"/></g><g clip-path="url(#a0aec622ba)"><path fill="#333333" d="M 119.652344 16.894531 L 126.148438 16.894531 L 126.148438 56.597656 L 119.652344 56.597656 Z M 119.652344 16.894531 " fill-opacity="1" fill-rule="nonzero"/></g><g clip-path="url(#659366a666)"><path fill="#333333" d="M 155.085938 19.765625 L 158.597656 19.765625 L 158.597656 56.585938 L 155.085938 56.585938 Z M 155.085938 19.765625 " fill-opacity="1" fill-rule="nonzero"/></g><g clip-path="url(#8d56b3aa96)"><path fill="#333333" d="M 164.917969 19.34375 L 169.554688 19.34375 L 169.554688 56.15625 L 164.917969 56.15625 Z M 164.917969 19.34375 " fill-opacity="1" fill-rule="nonzero"/></g><g clip-path="url(#2e42ab0a0c)"><path fill="#333333" d="M 209.164062 26.648438 L 227.84375 26.648438 L 227.84375 33.550781 L 209.164062 33.550781 Z M 209.164062 26.648438 " fill-opacity="1" fill-rule="nonzero"/></g><g clip-path="url(#3a68ac3b55)"><path fill="#333333" d="M 198.347656 18.796875 L 202.703125 18.796875 L 202.703125 55.621094 L 198.347656 55.621094 Z M 198.347656 18.796875 " fill-opacity="1" fill-rule="nonzero"/></g><g clip-path="url(#9197cb9833)"><path fill="#333333" d="M 209.25 39.089844 L 226.953125 39.089844 L 226.953125 47.773438 L 209.25 47.773438 Z M 209.25 39.089844 " fill-opacity="1" fill-rule="nonzero"/></g><g clip-path="url(#e112057239)"><g clip-path="url(#37c515bb88)"><g clip-path="url(#86bdc8451e)"><path fill="#333333" d="M 157.917969 19.683594 L 179.953125 16.894531 L 186.820312 71.207031 L 164.789062 73.992188 Z M 157.917969 19.683594 " fill-opacity="1" fill-rule="nonzero"/></g></g></g><g clip-path="url(#6dcfffbb1c)"><g clip-path="url(#33a07cc03f)"><g clip-path="url(#586e5e73e8)"><path fill="#333333" d="M 187.21875 19.28125 L 209.25 22.089844 L 202.335938 76.394531 L 180.304688 73.589844 Z M 187.21875 19.28125 " fill-opacity="1" fill-rule="nonzero"/></g></g></g><g clip-path="url(#09f1993859)"><g clip-path="url(#03b6bc0220)"><path fill="#333333" d="M 191.597656 46.332031 L 176.257812 46.332031 L 176.257812 19.785156 L 191.597656 19.785156 Z M 191.597656 46.332031 " fill-opacity="1" fill-rule="nonzero"/></g></g><g clip-path="url(#05f8f3bf05)"><g clip-path="url(#c138fbd347)"><path fill="#333333" d="M 140.734375 50.078125 L 140.734375 17.628906 L 155.976562 17.628906 L 155.976562 50.078125 Z M 140.734375 50.078125 " fill-opacity="1" fill-rule="nonzero"/></g></g><g clip-path="url(#e494850e77)"><g clip-path="url(#b869778fd4)"><g clip-path="url(#98494929ee)"><path fill="#333333" d="M 150.898438 26.679688 L 165.839844 47.839844 L 155.898438 54.859375 L 140.957031 33.699219 Z M 150.898438 26.679688 " fill-opacity="1" fill-rule="nonzero"/></g></g></g><g clip-path="url(#bb091c503b)"><path fill="#333333" d="M 53.804688 26.367188 L 72.484375 26.367188 L 72.484375 33.832031 L 53.804688 33.832031 Z M 53.804688 26.367188 " fill-opacity="1" fill-rule="nonzero"/></g><g clip-path="url(#84be8569f2)"><path fill="#333333" d="M 53.804688 39.8125 L 71.488281 39.8125 L 71.488281 54.417969 L 53.804688 54.417969 Z M 53.804688 39.8125 " fill-opacity="1" fill-rule="nonzero"/></g><g clip-path="url(#1c65221f41)"><path fill="#333333" d="M 68.261719 18.765625 L 74.066406 18.765625 L 74.066406 58.457031 L 68.261719 58.457031 Z M 68.261719 18.765625 " fill-opacity="1" fill-rule="nonzero"/></g><g clip-path="url(#ecd695c3d4)"><g clip-path="url(#00156050be)"><g clip-path="url(#c838c9108e)"><path fill="#333333" d="M 49.511719 46.152344 L 31.859375 47.109375 L 30.25 17.386719 L 47.902344 16.433594 Z M 49.511719 46.152344 " fill-opacity="1" fill-rule="nonzero"/></g></g></g><g clip-path="url(#fcfdad9004)"><g clip-path="url(#2cb13c610e)"><g clip-path="url(#78414e9bd2)"><path fill="#333333" d="M 54.066406 40.890625 L 40.4375 44.929688 L 33.640625 21.980469 L 47.269531 17.941406 Z M 54.066406 40.890625 " fill-opacity="1" fill-rule="nonzero"/></g></g></g><g clip-path="url(#7ac174dd2c)"><g clip-path="url(#5d66cacdcf)"><g clip-path="url(#d62021c666)"><path fill="#333333" d="M 37.796875 38.335938 L 44.171875 36.203125 L 46.78125 43.996094 L 40.40625 46.128906 Z M 37.796875 38.335938 " fill-opacity="1" fill-rule="nonzero"/></g></g></g><g clip-path="url(#36facc72bb)"><g clip-path="url(#43d95c12e3)"><g clip-path="url(#d5e3fe9a4d)"><path fill="#333333" d="M 37.796875 35.023438 L 44.265625 32.859375 L 46.914062 40.769531 L 40.445312 42.933594 Z M 37.796875 35.023438 " fill-opacity="1" fill-rule="nonzero"/></g></g></g><g clip-path="url(#a56855cac5)"><g clip-path="url(#00678bd96c)"><g clip-path="url(#0b4facd998)"><path fill="#333333" d="M 44.140625 37.734375 L 50.367188 40.269531 L 47.269531 47.878906 L 41.042969 45.347656 Z M 44.140625 37.734375 " fill-opacity="1" fill-rule="nonzero"/></g></g></g><g clip-path="url(#3df1b3490c)"><g clip-path="url(#772e1ce44a)"><g clip-path="url(#f82dd0e8b0)"><path fill="#333333" d="M 45.042969 46.617188 L 49.449219 48.226562 L 47.480469 53.613281 L 43.078125 52.003906 Z M 45.042969 46.617188 " fill-opacity="1" fill-rule="nonzero"/></g></g></g><g clip-path="url(#6dc912606f)"><g clip-path="url(#e15a153c28)"><g clip-path="url(#eb34c962fa)"><path fill="#333333" d="M 39.890625 50.632812 L 43.105469 48.109375 L 47.320312 53.472656 L 44.101562 56 Z M 39.890625 50.632812 " fill-opacity="1" fill-rule="nonzero"/></g></g></g><g clip-path="url(#0afd9b0bcf)"><g clip-path="url(#8b604e1a65)"><g clip-path="url(#f06225ff90)"><path fill="#333333" d="M 38.382812 45.773438 L 41.753906 43.457031 L 45.613281 49.082031 L 42.242188 51.398438 Z M 38.382812 45.773438 " fill-opacity="1" fill-rule="nonzero"/></g></g></g><g clip-path="url(#311b7e0e28)"><g clip-path="url(#68a61ba65b)"><g clip-path="url(#e208fc47ea)"><path fill="#333333" d="M 39.6875 45.773438 L 43.058594 43.457031 L 46.917969 49.082031 L 43.546875 51.398438 Z M 39.6875 45.773438 " fill-opacity="1" fill-rule="nonzero"/></g></g></g><g clip-path="url(#ccc74abf26)"><g clip-path="url(#5fa483c0fa)"><g clip-path="url(#ac44189ebb)"><path fill="#333333" d="M 40.085938 44.257812 L 42.980469 42.273438 L 46.839844 47.894531 L 43.941406 49.878906 Z M 40.085938 44.257812 " fill-opacity="1" fill-rule="nonzero"/></g></g></g><g clip-path="url(#afc53a87e4)"><g clip-path="url(#6fd98be9e8)"><g clip-path="url(#d52e0f9038)"><path fill="#333333" d="M 38.625 41.691406 L 41.8125 40.21875 L 44.675781 46.40625 L 41.488281 47.878906 Z M 38.625 41.691406 " fill-opacity="1" fill-rule="nonzero"/></g></g></g><g clip-path="url(#38f6e3b107)"><path fill="#333333" d="M 43.597656 43.6875 L 47.136719 43.6875 L 47.136719 51.152344 L 43.597656 51.152344 Z M 43.597656 43.6875 " fill-opacity="1" fill-rule="nonzero"/></g><g clip-path="url(#45cb449ec7)"><g clip-path="url(#7fa9943a51)"><path fill="#333333" d="M 97.496094 36.410156 L 102.019531 35.777344 L 104.429688 52.980469 L 99.90625 53.617188 Z M 97.496094 36.410156 " fill-opacity="1" fill-rule="nonzero"/></g></g><g clip-path="url(#e4544133ea)"><g clip-path="url(#b3ca220aa3)"><path fill="#333333" d="M 93.375 41.160156 L 93.375 34.289062 L 105.402344 34.289062 L 105.402344 41.160156 Z M 93.375 41.160156 " fill-opacity="1" fill-rule="nonzero"/></g></g><g clip-path="url(#c032af6474)"><g clip-path="url(#67e9813a7e)"><g clip-path="url(#995b308066)"><path fill="#333333" d="M 96.753906 40.863281 L 94.71875 34.304688 L 99.902344 32.695312 L 101.9375 39.253906 Z M 96.753906 40.863281 " fill-opacity="1" fill-rule="nonzero"/></g></g></g><g clip-path="url(#d0fa722abc)"><g clip-path="url(#3a5ba2232f)"><g clip-path="url(#98f11a2ee3)"><path fill="#333333" d="M 94.5 41.242188 L 94.097656 34.386719 L 99.515625 34.066406 L 99.917969 40.925781 Z M 94.5 41.242188 " fill-opacity="1" fill-rule="nonzero"/></g></g></g><g clip-path="url(#1d66d2d43c)"><g clip-path="url(#79b90176a0)"><path fill="#333333" d="M 100.835938 27.601562 L 104.511719 28.589844 L 102.003906 37.898438 L 98.332031 36.910156 Z M 100.835938 27.601562 " fill-opacity="1" fill-rule="nonzero"/></g></g><g clip-path="url(#fcaadabd2a)"><g clip-path="url(#70f0d6e4e8)"><path fill="#333333" d="M 96.4375 38.230469 L 99.746094 36.351562 L 104.511719 44.734375 L 101.203125 46.613281 Z M 96.4375 38.230469 " fill-opacity="1" fill-rule="nonzero"/></g></g><g clip-path="url(#75b8ad3581)"><g clip-path="url(#f53b1ebafd)"><path fill="#333333" d="M 95.847656 19.8125 L 99.15625 17.933594 L 103.921875 26.316406 L 100.613281 28.195312 Z M 95.847656 19.8125 " fill-opacity="1" fill-rule="nonzero"/></g></g><g clip-path="url(#4669d5692a)"><g clip-path="url(#4420cebc6e)"><path fill="#333333" d="M 98.632812 21.523438 L 102.375 20.835938 L 104.117188 30.320312 L 100.378906 31.007812 Z M 98.632812 21.523438 " fill-opacity="1" fill-rule="nonzero"/></g></g><g clip-path="url(#11e0e7e61a)"><g clip-path="url(#d6b454ea80)"><path fill="#333333" d="M 91.457031 18.332031 L 93.777344 15.316406 L 101.421875 21.191406 L 99.101562 24.207031 Z M 91.457031 18.332031 " fill-opacity="1" fill-rule="nonzero"/></g></g><g clip-path="url(#ea38598ed9)"><g clip-path="url(#e9b8ded139)"><path fill="#333333" d="M 88.921875 18.539062 L 90.464844 15.0625 L 99.277344 18.976562 L 97.734375 22.453125 Z M 88.921875 18.539062 " fill-opacity="1" fill-rule="nonzero"/></g></g><g clip-path="url(#574c200a12)"><g clip-path="url(#daa12464f1)"><g clip-path="url(#a93a8f5016)"><path fill="#333333" d="M 139.804688 36.351562 L 125.585938 30.015625 L 132.6875 14.074219 L 146.910156 20.410156 Z M 139.804688 36.351562 " fill-opacity="1" fill-rule="nonzero"/></g></g></g><g clip-path="url(#80c0221dc5)"><path fill="#333333" d="M -12.144531 63.734375 L 246.027344 63.734375 L 246.027344 86.222656 L -12.144531 86.222656 Z M -12.144531 63.734375 " fill-opacity="1" fill-rule="nonzero"/></g><g clip-path="url(#d4a58c6c6b)"><path fill="#333333" d="M -7.0625 -6.976562 L 12.042969 -6.976562 L 12.042969 103.992188 L -7.0625 103.992188 Z M -7.0625 -6.976562 " fill-opacity="1" fill-rule="nonzero"/></g><g clip-path="url(#da467c0400)"><path fill="#333333" d="M 223.492188 -16.855469 L 242.597656 -16.855469 L 242.597656 94.113281 L 223.492188 94.113281 Z M 223.492188 -16.855469 " fill-opacity="1" fill-rule="nonzero"/></g></svg>